<svg width="50" height="43" viewBox="0 0 50 43" fill="none" xmlns="http://www.w3.org/2000/svg">
<path d="M21 35.25C21.6904 35.25 22.25 34.6904 22.25 34C22.25 33.3096 21.6904 32.75 21 32.75C20.3096 32.75 19.75 33.3096 19.75 34C19.75 34.6904 20.3096 35.25 21 35.25Z" stroke="black" stroke-width="2" stroke-linecap="round" stroke-linejoin="round"/>
<path d="M34.75 35.25C35.4404 35.25 36 34.6904 36 34C36 33.3096 35.4404 32.75 34.75 32.75C34.0596 32.75 33.5 33.3096 33.5 34C33.5 34.6904 34.0596 35.25 34.75 35.25Z" stroke="black" stroke-width="2" stroke-linecap="round" stroke-linejoin="round"/>
<path d="M11 9H16L19.35 25.7375C19.4643 26.313 19.7774 26.8299 20.2344 27.1979C20.6915 27.5658 21.2634 27.7612 21.85 27.75H34C34.5866 27.7612 35.1585 27.5658 35.6156 27.1979C36.0726 26.8299 36.3857 26.313 36.5 25.7375L38.5 15.25H17.25" stroke="black" stroke-width="2" stroke-linecap="round" stroke-linejoin="round"/>
<path d="M43.5 16C43.5 20.114 39.9473 23.5 35.5 23.5C31.0527 23.5 27.5 20.114 27.5 16C27.5 11.886 31.0527 8.5 35.5 8.5C39.9473 8.5 43.5 11.886 43.5 16Z" fill="#FF0000" stroke="white"/>
<path d="M34.052 19C33.752 19 33.602 18.8533 33.602 18.56C33.602 18.2733 33.752 18.13 34.052 18.13H35.272V13.14L34.332 13.74C34.2053 13.82 34.0853 13.8433 33.972 13.81C33.8653 13.77 33.782 13.7 33.722 13.6C33.6686 13.5 33.652 13.3933 33.672 13.28C33.6986 13.16 33.7753 13.06 33.902 12.98L35.282 12.11C35.3953 12.0433 35.502 11.99 35.602 11.95C35.7086 11.9033 35.8086 11.88 35.902 11.88C36.0153 11.88 36.1086 11.9133 36.182 11.98C36.262 12.0467 36.302 12.15 36.302 12.29V18.13H37.422C37.7286 18.13 37.882 18.2733 37.882 18.56C37.882 18.8533 37.7286 19 37.422 19H34.052Z" fill="white"/>
</svg>
